<?xml version="1.0" standalone="no"?>
<!DOCTYPE svg PUBLIC "-//W3C//DTD SVG 20010904//EN"
 "http://www.w3.org/TR/2001/REC-SVG-20010904/DTD/svg10.dtd">
<svg version="1.0" xmlns="http://www.w3.org/2000/svg"
 width="980.000000pt" height="980.000000pt" viewBox="0 0 980.000000 980.000000"
 preserveAspectRatio="xMidYMid meet">

<g transform="translate(0.000000,980.000000) scale(0.100000,-0.100000)"
fill="#000000" stroke="none">
<path d="M4800 7553 c-137 -10 -335 -56 -470 -110 -563 -222 -961 -768 -998
-1368 l-7 -110 -180 -3 c-99 -1 -208 -3 -241 -5 l-61 -2 113 -233 c62 -128
133 -263 158 -300 43 -65 190 -222 207 -222 5 0 9 -108 9 -240 l0 -239 63
-163 c35 -90 121 -308 190 -485 70 -177 127 -325 127 -330 0 -5 -26 -13 -59
-20 -68 -13 -167 -54 -231 -97 -118 -78 -235 -232 -278 -366 -24 -74 -102
-371 -102 -388 0 -12 92 -86 205 -164 372 -257 840 -431 1315 -490 138 -17
555 -17 680 0 562 78 1011 258 1437 578 62 47 113 90 113 95 0 5 -22 93 -50
196 -67 251 -105 330 -212 442 -72 74 -179 142 -274 173 -83 28 -386 76 -636
103 -180 18 -165 19 -173 -3 -15 -48 -203 -157 -325 -188 -87 -22 -245 -23
-330 0 -129 33 -330 151 -330 193 0 14 -13 15 -107 9 -60 -3 -162 -13 -228
-21 -170 -21 -160 -26 -117 51 90 163 251 304 425 374 31 13 57 27 57 30 0 4
-23 17 -52 31 -167 78 -356 264 -447 439 -43 83 -105 250 -96 259 3 3 20 4 38
3 18 -2 39 3 48 10 9 7 68 72 130 143 579 664 637 726 774 829 204 154 439
262 685 314 107 23 262 42 345 42 l55 0 0 -602 c0 -366 -4 -629 -10 -668 -47
-295 -230 -571 -483 -727 -31 -20 -56 -37 -55 -38 2 -2 54 -12 116 -24 231
-44 374 -117 424 -214 14 -28 14 -28 56 80 23 59 143 370 267 691 l225 583 0
342 c0 374 -6 453 -50 623 -97 377 -334 708 -664 928 -283 188 -653 285 -996
259z"/>
</g>
</svg>
